<svg width="64" height="64" viewBox="0 0 64 64" fill="none" xmlns="http://www.w3.org/2000/svg" role="img" aria-label="SPORE mark">
  <defs>
    <radialGradient id="sporeFade" cx="50%" cy="50%" r="50%">
      <stop offset="0%" stop-color="#46E5B0" stop-opacity="1"></stop>
      <stop offset="100%" stop-color="#46E5B0" stop-opacity="0.55"></stop>
    </radialGradient>
  </defs>
  
  <g stroke="#46E5B0" stroke-width="2" stroke-linecap="round">
    <g opacity="0.9">
      <line x1="32" y1="32" x2="32" y2="7"></line>
      <line x1="32" y1="32" x2="49.7" y2="14.3"></line>
      <line x1="32" y1="32" x2="57" y2="32"></line>
      <line x1="32" y1="32" x2="49.7" y2="49.7"></line>
      <line x1="32" y1="32" x2="32" y2="57"></line>
      <line x1="32" y1="32" x2="14.3" y2="49.7"></line>
      <line x1="32" y1="32" x2="7" y2="32"></line>
      <line x1="32" y1="32" x2="14.3" y2="14.3"></line>
    </g>
    <g opacity="0.45" stroke-width="1.6">
      <line x1="32" y1="32" x2="41.5" y2="8.8"></line>
      <line x1="32" y1="32" x2="55.2" y2="22.5"></line>
      <line x1="32" y1="32" x2="55.2" y2="41.5"></line>
      <line x1="32" y1="32" x2="41.5" y2="55.2"></line>
      <line x1="32" y1="32" x2="22.5" y2="55.2"></line>
      <line x1="32" y1="32" x2="8.8" y2="41.5"></line>
      <line x1="32" y1="32" x2="8.8" y2="22.5"></line>
      <line x1="32" y1="32" x2="22.5" y2="8.8"></line>
    </g>
  </g>
  <circle cx="32" cy="32" r="6.5" fill="url(#sporeFade)"></circle>
  <circle cx="32" cy="32" r="26" stroke="#46E5B0" stroke-width="2" opacity="0.85"></circle>
</svg>